<svg id="Layer_1" data-name="Layer 1" xmlns="http://www.w3.org/2000/svg" viewBox="0 0 249.9 95.79"><defs><style>.cls-1{fill:#52a246;}.cls-1,.cls-10,.cls-11,.cls-12,.cls-13,.cls-14,.cls-15,.cls-16,.cls-17,.cls-18,.cls-19,.cls-2,.cls-20,.cls-21,.cls-22,.cls-23,.cls-24,.cls-25,.cls-26,.cls-27,.cls-28,.cls-29,.cls-3,.cls-30,.cls-31,.cls-32,.cls-4,.cls-5,.cls-6,.cls-7,.cls-8,.cls-9{fill-rule:evenodd;}.cls-2{fill:#55a347;}.cls-3{fill:#58a447;}.cls-4{fill:#59a449;}.cls-5{fill:#5aa44a;}.cls-6{fill:#5aa449;}.cls-7{fill:#5ea54c;}.cls-8{fill:#62a650;}.cls-9{fill:#91ba81;}.cls-10{fill:#d4e1ca;}.cls-11{fill:#5da44b;}.cls-12{fill:#6caa56;}.cls-13{fill:#60a44e;}.cls-14{fill:#69a956;}.cls-15{fill:#abc89b;}.cls-16{fill:#75ac60;}.cls-17{fill:#8cb97a;}.cls-18{fill:#62a450;}.cls-19{fill:#72ab5d;}.cls-20{fill:#62a54f;}.cls-21{fill:#91bb80;}.cls-22{fill:#78ae62;}.cls-23{fill:#62a44d;}.cls-24{fill:#e7eee2;}.cls-25{fill:#7cb069;}.cls-26{fill:#80b26f;}.cls-27{fill:#57a149;}.cls-28{fill:#57a147;}.cls-29{fill:#ccdcc2;}.cls-30{fill:#81b36f;}.cls-31{fill:#6aa957;}.cls-32{fill:#e3ecde;}.cls-33{fill:#5e4524;}</style></defs><title>emailSignature</title><path class="cls-1" d="M247.47,48.44c-13.24-8.53-26.55-17-39.69-25.66-2.89-1.92-5.07-1.7-7.77,0-6.38,4.11-10,3.15-14.71-2.59-7-8.44-9.92-9.41-19.48-7.16-3.37.79-6.68,1.9-10,3-4.86,1.6-5.57,4.08-2.49,8.19.32.44.94.78.38,1.81-2.28-.42-4.26-1.71-6.25-2.87Q135.26,16.08,123.1,8.85c-3.88-2.3-7.43-3.11-12.08-1.1C100.6,12.23,89.84,16,79.23,20c-3.48,1.33-3.73,2.53-1,5,1,.92,2.14,1.69,3.63,2.86A14.91,14.91,0,0,1,73.3,25c-8.5-6.14-8.5-6.14-17.38-.68-2.35,1.43-4.79,2.73-7,4.34a41.86,41.86,0,0,1-18.76,7.46c-4.68.73-8.58,3.54-12.73,5.62-5.81,2.91-11.56,6-17.52,9.1-.22-1.7,1-1.88,1.63-2.3q14-8.76,28-17.45c1.13-.71,2.2-1.49,3.63-1.15,3.22.8,5.75-.58,8.32-2.27,5.89-3.85,11.89-7.55,17.82-11.34a8.42,8.42,0,0,1,7.89-.69,22.55,22.55,0,0,0,18.76-.89c9-4.44,18.52-7.72,27.06-13,3.73-2.34,6.27-1.87,9.39,1.13a27.33,27.33,0,0,0,8,5.42c4.89,2.16,9.86,4.23,14.8,6.28a9,9,0,0,0,7.63-.31c6.41-3,13.31-4.66,20.22-6.11a9,9,0,0,1,7.73,2c3.28,2.58,6.54,5.18,9.74,7.89a3.84,3.84,0,0,0,4.52.67c3.75-1.53,7.59-2.86,11.45-4.13,2.76-.9,4.87-.48,6.7,2.3,3.51,5.3,8.68,9.12,13.5,13.21,7.09,6,14.37,11.79,21.6,17.66C248.4,48.38,248.23,48.71,247.47,48.44Z" transform="translate(0.12 -0.21)"/><path class="cls-2" d="M131.41,30.55c.41-.9,1.88-1.22,1.41-2.58.47-2.26,2-.87,3.14-.93.71,2.47-1.84,5.84-5,6.42-1.48.28-3,.27-4.84.42,1.16,1.44,2.68,1.7,4.07,2.24.87.35,2.49,0,2.21,1.6-.23,1.28-1.52,1.31-2.6,1.44-4.63.5-9.24,1.06-13.87,1.52s-9.51.9-14.27,1.22a11.19,11.19,0,0,1-6.21-1.38c0-.68.31-1,1-1a46.34,46.34,0,0,1,6.24.32L126.26,37c-3.35-1.48-5.68-2.54-8.06-3.5-.72-.3-1.9-.07-1.71-1.25s.09-2.58,2-2.19c2.78.73,5.67.64,8.47,1.18C128.45,31.07,130.12,32.05,131.41,30.55Z" transform="translate(0.12 -0.21)"/><path class="cls-3" d="M93.27,22.22c4,0,7.12-2.42,10.68-3.69.69-.37,1.53-.22,2.21-.61,1.5-.5,2.64-1.79,4.33-1.9a2.25,2.25,0,0,1,.89.34,8.42,8.42,0,0,1-7.85,6.25c-.47,0-1-.24-1.41-.15-2.52.54-4.54,2.71-7.41,2.18a27.73,27.73,0,0,0-7.77-.13c-.76,1.11,1.28,1,.78,2l-.15.19c-.74.39-1.39-.05-2-.35-1.06-.57-2.83-.65-2.56-2.39.23-1.53,1.8-1.2,2.88-1.46,1.72-.39,3.46-.71,5.21-1.06C91.9,21.52,92.48,22.13,93.27,22.22Z" transform="translate(0.12 -0.21)"/><path class="cls-4" d="M176.66,33.6c-2.85-.05-5.64-1.34-8.6.33a3.22,3.22,0,0,1-4.26-1.42c-1.29-2.56-3.49-4-6-5.1,4.4-.65,8,4.17,11.54,3,5-1.61,7.82,2.42,11.85,2.5C179.9,34.78,178.19,33.62,176.66,33.6Z" transform="translate(0.12 -0.21)"/><path class="cls-5" d="M217.61,52.74c-8-.84-15.39-3.09-21.69-8.32a4.14,4.14,0,0,1,4.2-.22,101.85,101.85,0,0,0,16.12,6.7A1.91,1.91,0,0,1,217.61,52.74Z" transform="translate(0.12 -0.21)"/><path class="cls-6" d="M98.12,45c-6.5.22-12.67-1.89-20-1.67C81,40.56,83.66,41,86,40.51c.86.38,1.85.55,2.34,1.48,4.23,2,8.92,1.48,13.52,2a2.89,2.89,0,0,1-2.11,2C99.18,45.77,98.73,45.25,98.12,45Z" transform="translate(0.12 -0.21)"/><path class="cls-7" d="M165.89,18c-1.57-1-2.24,2.82-3.85,0-.32-.56-1.94.51-1.73-1,.17-1,1-1.42,2.07-1.56,2.27-.26,4.46-.6,5.44,2.24.15.5.8.85,1.23,1.26.8.75,3.19.66,2.4,2s-2.77-.15-4.22-.31S164.47,19.62,165.89,18Z" transform="translate(0.12 -0.21)"/><path class="cls-8" d="M176.66,33.6c1.48-.37,3.13.45,4.49-.67,3.93.12,5.75,4,9.18,5.13-4.31.8-7.35-4.07-11.77-2.35,0-.33-.07-.47,0-.57.17-.39,1.73.24.8-.77C178.84,33.85,177.47,34.25,176.66,33.6Z" transform="translate(0.12 -0.21)"/><path class="cls-9" d="M127.08,31.38a13.08,13.08,0,0,1-8.6-1.33,17.93,17.93,0,0,1,8,.68A1.42,1.42,0,0,1,127.08,31.38Z" transform="translate(0.12 -0.21)"/><path class="cls-10" d="M102.65,39.88c-2.14,1-4.29,0-6.45,0-.18-.19-.23-.35-.15-.5s.15-.23.21-.23a55.82,55.82,0,0,1,6.28-.61C104.67,38.59,102.49,39.43,102.65,39.88Z" transform="translate(0.12 -0.21)"/><path class="cls-11" d="M96.26,39.17c0,.24,0,.48-.06.73-.25.19-.49.41-.74.62-1.93-.21-3.85-.43-5.78-.62-.34-.77.06-1.23.69-1.59a25.67,25.67,0,0,0,2.91.16C94.3,38.64,95.5,38,96.26,39.17Z" transform="translate(0.12 -0.21)"/><path class="cls-12" d="M136,27c-1,.32-2.35-.26-3.14.93-1.83-.62-3.91-.62-5.35-2.49Z" transform="translate(0.12 -0.21)"/><path class="cls-13" d="M90.4,38.53c-.24.45-.47.91-.72,1.37-.43.7-.87,1.39-1.31,2.09A3.77,3.77,0,0,1,86,40.51c1.73,0,1.91-2.34,3.65-2.31A.51.51,0,0,1,90.4,38.53Z" transform="translate(0.12 -0.21)"/><path class="cls-14" d="M106.24,18.6a1.91,1.91,0,0,1-2.29-.07c-.11-2.09,1.58-2.63,3-3.38a1.06,1.06,0,0,1,1,.84C107.9,17.19,107,17.83,106.24,18.6Z" transform="translate(0.12 -0.21)"/><path class="cls-14" d="M98.12,45c.89-.15,1.53.1,1.66,1.08l-2.14,2.28a.67.67,0,0,1-.1,1C93.76,47.37,98.55,46.5,98.12,45Z" transform="translate(0.12 -0.21)"/><path class="cls-15" d="M107.61,15.78c-.21-.22-.43-.43-.64-.63,1.81-.81,3.76-2.08,4.41,1.21l-.84.07C109.58,16.11,108.4,16.78,107.61,15.78Z" transform="translate(0.12 -0.21)"/><path class="cls-16" d="M127.08,31.38l-.63-.65,5-.18C130.42,33.1,128.7,32,127.08,31.38Z" transform="translate(0.12 -0.21)"/><path class="cls-17" d="M127.38,24.59c-2.24,1.69-3.21.46-5-.23C124.38,23.61,125.51,24.39,127.38,24.59Z" transform="translate(0.12 -0.21)"/><path class="cls-18" d="M181.17,39.3c.78,0,1.63-.35,2.44.71a6.11,6.11,0,0,1-5.45,0C179,39.11,180.26,40,181.17,39.3Z" transform="translate(0.12 -0.21)"/><path class="cls-19" d="M109.83,13c-1.72,1-3.17.68-5.48.37A6.75,6.75,0,0,1,109.83,13Z" transform="translate(0.12 -0.21)"/><path class="cls-20" d="M96.72,17.56c1.71-.27,3.27-1,5.35-.31C100,18.31,98.29,17.81,96.72,17.56Z" transform="translate(0.12 -0.21)"/><path class="cls-21" d="M100.39,48.35a2.92,2.92,0,0,1,3.76.09c-1,1.07-2,.64-3,.66C100.91,48.84,100.46,48.78,100.39,48.35Z" transform="translate(0.12 -0.21)"/><path class="cls-22" d="M89,28.56c-1.63,1.52-3.2.71-4.77-.43l4.84.46Z" transform="translate(0.12 -0.21)"/><path class="cls-23" d="M100.39,48.35c.26.24.52.5.78.75-1.2.12-2.36,1.06-3.63.24,0-.34.07-.68.1-1Z" transform="translate(0.12 -0.21)"/><path class="cls-24" d="M93.27,22.22c-.86.39-1.78,1-2.63.36-.53-.36,1.21-.4.49-1.18C92.41,20.23,93.08,20.62,93.27,22.22Z" transform="translate(0.12 -0.21)"/><path class="cls-25" d="M184,40.51c1.42.64,2.64.26,2.89,1.62,0,.17-.2.53-.32.53C185.48,42.68,184.68,42.21,184,40.51Z" transform="translate(0.12 -0.21)"/><path class="cls-26" d="M90.4,38.53l-.72-.33c1.26-.58,2.49-1,3.6.27C92.35,40,91.37,38.8,90.4,38.53Z" transform="translate(0.12 -0.21)"/><path class="cls-27" d="M113.46,10.6a2.08,2.08,0,0,1-2.41,1.6c-.15,0-.45-.62-.35-.78C111.25,10.47,112.15,10.47,113.46,10.6Z" transform="translate(0.12 -0.21)"/><path class="cls-28" d="M181.17,39.3c-.83,1-2,.43-3,.68-.4-.15-1.64-.11-.72-.71S179.9,38.93,181.17,39.3Z" transform="translate(0.12 -0.21)"/><path class="cls-29" d="M192.88,43.51c.21.51-.22.6-.52.6s-1.12,0-1.26-.25c-.24-.44.28-.79.68-.91A.91.91,0,0,1,192.88,43.51Z" transform="translate(0.12 -0.21)"/><path class="cls-30" d="M87.57,26.66v-.17l.16,0c1.24.2,2.65.31,1.31,2.08l.08,0C88.72,27.86,87.45,27.79,87.57,26.66Z" transform="translate(0.12 -0.21)"/><path class="cls-31" d="M247.47,48.44l.76-.74c.7.42,2.12.73,1.3,1.73C249,50.13,248.05,49.07,247.47,48.44Z" transform="translate(0.12 -0.21)"/><path class="cls-32" d="M107.61,15.78c1,.07,2.19-.59,2.93.65-1.63.36-2.43,2.29-4.3,2.17C105.67,17.17,107.5,16.87,107.61,15.78Z" transform="translate(0.12 -0.21)"/><path class="cls-33" d="M36.16,75.23H15.91V90.92a4.16,4.16,0,0,0,.82,3,4.46,4.46,0,0,0,3.09.8c1,0,1.56.21,1.56.64s-.19.56-.58.56H3.35c-.39,0-.59-.18-.59-.56s.32-.66,1-.64A6.64,6.64,0,0,0,7,94.2c.79-.5,1.19-1.6,1.19-3.28V59.12a4.2,4.2,0,0,0-.81-3,4.37,4.37,0,0,0-3.08-.8c-1,0-1.56-.21-1.56-.62s.2-.65.59-.65H20.8c.39,0,.58.22.58.65s-.33.64-1,.62a7,7,0,0,0-3.3.47c-.8.51-1.19,1.61-1.19,3.32V73.66H36.16V59.12a4.25,4.25,0,0,0-.8-3,4.4,4.4,0,0,0-3.08-.8c-1.06,0-1.59-.21-1.59-.62s.2-.65.61-.65H48.67c.44,0,.66.21.66.64s-.24.57-.71.63H47.48a3.9,3.9,0,0,0-2.84.81,4.22,4.22,0,0,0-.78,2.92V90.92a4.16,4.16,0,0,0,.82,3,4.44,4.44,0,0,0,3.07.8c1,0,1.58.21,1.58.64s-.22.56-.66.56H31.3c-.41,0-.61-.18-.61-.56s.31-.64.92-.64A7.14,7.14,0,0,0,35,94.23c.81-.52,1.21-1.63,1.21-3.31ZM14.77,55.33H8.21A5.64,5.64,0,0,1,9.4,59V91.09a6.48,6.48,0,0,1-1,3.56h6.32c-.73-.77-1.09-2.11-1.09-4V60.15A8.17,8.17,0,0,1,14.77,55.33Zm28.06,0H36.16a4.4,4.4,0,0,1,1.19,3V91.2a4.51,4.51,0,0,1-1.19,3.45h6.51c-.72-.65-1.09-2-1.09-4.15V59.17C41.58,57.26,42,56,42.83,55.33Z" transform="translate(0.12 -0.21)"/><path class="cls-33" d="M57.32,72.77l-3.17-1.15a.79.79,0,0,1-.61-.76c0-.25.65-.61,2-1.1l5.37-2A7.42,7.42,0,0,1,63,67.17c.51,0,.76.33.76,1V91.75c0,1.86,1,2.84,2.89,3h1a.57.57,0,0,1,.61.64c0,.38-.21.56-.61.56H53.44c-.41,0-.61-.18-.61-.56a.57.57,0,0,1,.61-.64h.87c2-.13,3-1.14,3-3Zm4.23-4.11-5.89,2.08,2.8.81V90.86a5.89,5.89,0,0,1-1.08,3.85h5.1a6.92,6.92,0,0,1-.93-3.85Zm-.87-7.86a3.26,3.26,0,0,1-2.48-1.09,3.71,3.71,0,0,1-1-2.64,3.75,3.75,0,0,1,1-2.67,3.39,3.39,0,0,1,5,0,3.77,3.77,0,0,1,1,2.67,3.74,3.74,0,0,1-1,2.64A3.28,3.28,0,0,1,60.68,60.8Zm-.26-6.34a2.16,2.16,0,0,0-1.66.73,2.45,2.45,0,0,0-.67,1.74,2.52,2.52,0,0,0,.67,1.77,2.24,2.24,0,0,0,3.31,0,2.52,2.52,0,0,0,.67-1.77,2.45,2.45,0,0,0-.67-1.74A2.15,2.15,0,0,0,60.42,54.46Z" transform="translate(0.12 -0.21)"/><path class="cls-33" d="M75.42,58.84l-3.07-1.21a.78.78,0,0,1-.61-.76c0-.32.41-.62,1.24-.9l6.93-2.35a5.19,5.19,0,0,1,1.38-.37c.38,0,.58.29.58.87V92.35c0,1.61.94,2.41,2.83,2.41h1.35c.31,0,.47.17.47.51s-.17.64-.53.64H71.32c-.3,0-.45-.17-.45-.5s.18-.65.55-.65h1.3a2.58,2.58,0,0,0,2.1-.73,4.07,4.07,0,0,0,.6-2.55Zm4.33-3.91-5.63,1.94,2.43.93V90.27c0,2.12-.34,3.61-1,4.49h5a3.57,3.57,0,0,1-.77-2.52Z" transform="translate(0.12 -0.21)"/><path class="cls-33" d="M93.51,58.84l-3.07-1.21a.79.79,0,0,1-.61-.76c0-.32.42-.62,1.25-.9L98,53.62a5.19,5.19,0,0,1,1.38-.37c.39,0,.58.29.58.87V92.35c0,1.61.94,2.41,2.83,2.41h1.35q.48,0,.48.51c0,.43-.18.64-.53.64H89.41c-.3,0-.45-.17-.45-.5s.19-.65.56-.65h1.29a2.55,2.55,0,0,0,2.1-.73,4.07,4.07,0,0,0,.6-2.55Zm4.34-3.91-5.64,1.94,2.44.93V90.27c0,2.12-.35,3.61-1,4.49h5a3.57,3.57,0,0,1-.76-2.52Z" transform="translate(0.12 -0.21)"/><path class="cls-33" d="M129.9,95.29c-.26-.89-.51-1.79-.76-2.68s-.47-1.82-.7-2.76l-1-4.08q-1.12-4.72-3.12-6.62c-1.34-1.26-3.69-1.89-7.07-1.89q-.45,0-1.26.06l-1.17.09v5.71a49.83,49.83,0,0,0,.51,9.21,3.44,3.44,0,0,0,2,2.64l0,.43q-1.18-.09-2.22-.12c-.68,0-1.33,0-1.93,0s-1.26,0-1.91,0-1.32.06-2,.12l0-.43a3.3,3.3,0,0,0,1.94-2.45c.33-1.27.5-4.41.5-9.4V66.66a15.43,15.43,0,0,0-.42-4.61,2.17,2.17,0,0,0-1.57-1.33V60.3l2.34,0h7.08q4,0,5.73.18a11.23,11.23,0,0,1,2.88.64A7.16,7.16,0,0,1,131.28,64a8.43,8.43,0,0,1,1.23,4.6,7.91,7.91,0,0,1-2.38,6.09,10,10,0,0,1-6.65,2.38,9,9,0,0,1,4.71,2.23A10.9,10.9,0,0,1,131,84.2c.31,1,.7,2.43,1.16,4.26,1,3.83,2,5.94,3,6.3v.53l-1.74,0-1.29,0H131ZM114.84,76,116,76l.72,0c5,0,8.19-.54,9.73-1.64s2.3-3,2.3-5.69a6.39,6.39,0,0,0-2.28-5.41c-1.51-1.16-3.88-1.74-7.09-1.74l-2.19,0-2.38.08Z" transform="translate(0.12 -0.21)"/><path class="cls-33" d="M154.55,83.67l.55,1.08c-.74,3.71-1.91,6.52-3.51,8.41a7.58,7.58,0,0,1-6,2.84c-2.94,0-5.34-1.39-7.22-4.18a18.75,18.75,0,0,1-2.82-10.7,18.43,18.43,0,0,1,2.78-10.54,8.37,8.37,0,0,1,7.19-4.1,7.9,7.9,0,0,1,6.36,3,14.11,14.11,0,0,1,2.88,8.12H139c0,.53,0,1-.05,1.54s0,1.1,0,1.8c0,4.14.68,7.42,2,9.86s3.19,3.65,5.48,3.65a6.12,6.12,0,0,0,5-2.73A19.73,19.73,0,0,0,154.55,83.67Zm-15.46-7.23h12a13,13,0,0,0-1.63-6.56,4.57,4.57,0,0,0-4-2.43,5,5,0,0,0-4.16,2.34A14.94,14.94,0,0,0,139.09,76.44Z" transform="translate(0.12 -0.21)"/><path class="cls-33" d="M176.91,95.34h-.11c-1.3-.07-2.24-.1-2.82-.1h-1a22.77,22.77,0,0,1-.8-2.5,24.45,24.45,0,0,1-.52-2.68,9.92,9.92,0,0,1-2.93,4.39,7.28,7.28,0,0,1-9.82-.89,9.72,9.72,0,0,1-2-6.45,7.66,7.66,0,0,1,3.55-6.82Q164,78,170.87,78l.91,0c-.06-3.59-.57-6.24-1.55-7.94a4.82,4.82,0,0,0-4.48-2.55,5.8,5.8,0,0,0-4.49,1.88,9.49,9.49,0,0,0-2.14,5.4h-.2l-1.12-5.49a12.74,12.74,0,0,1,3.84-2.12,13.76,13.76,0,0,1,4.38-.7,9.11,9.11,0,0,1,4.06.87,7.19,7.19,0,0,1,2.85,2.47A9.28,9.28,0,0,1,174.19,73a35.88,35.88,0,0,1,.38,6.21v3.87a51.17,51.17,0,0,0,.51,9c.34,1.56.94,2.5,1.83,2.83ZM171.78,79.1l-.59,0-1,0q-4.77,0-7.37,2.2a7.72,7.72,0,0,0-2.6,6.24,8.38,8.38,0,0,0,1.39,5,4.37,4.37,0,0,0,3.7,1.89,5.29,5.29,0,0,0,4.73-2.82,15,15,0,0,0,1.72-7.83V79.1Z" transform="translate(0.12 -0.21)"/><path class="cls-33" d="M177.21,95.4V95a3.59,3.59,0,0,0,1.89-2.57,42.5,42.5,0,0,0,.52-8.57V64.11a15.25,15.25,0,0,0-.42-4.65,1.73,1.73,0,0,0-1.63-1.05V58a12.86,12.86,0,0,0,2.4-.69,21,21,0,0,0,2.61-1.3q-.09,1.73-.12,4c0,1.52,0,3.36,0,5.52v18q0,6.94.51,8.85A3.64,3.64,0,0,0,184.85,95l0,.43c-.62-.06-1.25-.1-1.91-.12s-1.31,0-2,0c-.83,0-1.53,0-2.09,0S177.75,95.34,177.21,95.4Z" transform="translate(0.12 -0.21)"/><path class="cls-33" d="M185.39,70.05l.21-.81a6.87,6.87,0,0,0,3-2.75,26.34,26.34,0,0,0,2.49-6.14h.28c-.05,1-.09,2.21-.12,3.54s-.06,2.8-.07,4.43h3.94v.36l-.38,1.37h-3.62l.09,12.49q0,7.36.62,9.63A3.54,3.54,0,0,0,194,95v.37l-2.56-.06-1.71,0a3.84,3.84,0,0,1-1.06-1.92,25.11,25.11,0,0,1-.29-4.86V85.17c0-.63,0-1.18,0-1.66l.14-13.46Z" transform="translate(0.12 -0.21)"/><path class="cls-33" d="M196.76,80.91a17.36,17.36,0,0,1,2.91-10.4,8.93,8.93,0,0,1,7.54-4,8.79,8.79,0,0,1,7.5,4.07q2.86,4.08,2.87,10.62t-2.87,10.66a8.91,8.91,0,0,1-7.62,4.06,8.7,8.7,0,0,1-7.46-4.15Q196.75,87.59,196.76,80.91Zm3.39,0q0,6.57,1.85,10.19t5.21,3.61c2.24,0,4-1.18,5.17-3.56s1.81-5.77,1.81-10.19-.62-7.68-1.85-10.08-3-3.59-5.16-3.59-3.94,1.2-5.18,3.59S200.15,76.67,200.15,81Z" transform="translate(0.12 -0.21)"/><path class="cls-33" d="M219.05,95.4V95a3.3,3.3,0,0,0,1.83-2.3,33.46,33.46,0,0,0,.5-7.45V75.85c0-2.9-.14-4.67-.42-5.3a1.69,1.69,0,0,0-1.61-1l0-.42c.64-.21,1.34-.46,2.09-.76s1.6-.68,2.55-1.13l-.07,8.16a18.19,18.19,0,0,1,2.89-6.15,4.82,4.82,0,0,1,3.76-2.12l.45,0,.29,0-1.4,5.91h-.18a2.82,2.82,0,0,0-.8-1,1.64,1.64,0,0,0-1-.33c-1.2,0-2.12.83-2.75,2.47a20.82,20.82,0,0,0-1,7.19v3.14a40.09,40.09,0,0,0,.48,8.1A3.32,3.32,0,0,0,226.54,95l0,.43c-.64-.06-1.27-.1-1.9-.12s-1.24,0-1.85,0-1.07,0-1.69,0S219.78,95.34,219.05,95.4Z" transform="translate(0.12 -0.21)"/><path class="cls-33" d="M231.65,93.45l1.25-6.07h.17a8.42,8.42,0,0,0,2.3,5.44,6.84,6.84,0,0,0,5.09,2.05A5.22,5.22,0,0,0,244.67,93a7.45,7.45,0,0,0,1.59-5,5.64,5.64,0,0,0-1-3.73q-1-1.18-4.89-1.92a10.43,10.43,0,0,1-5.65-2.61,7.09,7.09,0,0,1-1.77-5.09,7.94,7.94,0,0,1,2.38-5.9,8.35,8.35,0,0,1,6.13-2.36,15.81,15.81,0,0,1,3.85.46,12.12,12.12,0,0,1,3.23,1.33l-1,5.18h-.25a8.83,8.83,0,0,0-2-4.48,4.67,4.67,0,0,0-3.61-1.51,5,5,0,0,0-4,1.81,6.74,6.74,0,0,0-1.56,4.55,4.4,4.4,0,0,0,1.1,3.28q1.09,1.08,4.86,1.71,4.29.72,5.94,2.38a6.76,6.76,0,0,1,1.66,5,10,10,0,0,1-2.6,7.2A9.37,9.37,0,0,1,240,96a15,15,0,0,1-4.39-.63A14.4,14.4,0,0,1,231.65,93.45Z" transform="translate(0.12 -0.21)"/></svg>